<?xml version="1.0" encoding="utf-8"?><svg width="auto" height="6570" style="overflow:visible " version="1.1" xmlns="http://www.w3.org/2000/svg"><rect x="20" y="20" width="200" height="40" style="fill:white;stroke:black;stroke-width:1" /><text x="30" y="30" font-size="10" style="fill:blue">xs:schema</text><text x="30" y="40" font-size="8" style="fill:black">xmlns:xs: http://www.w3.org/2001/XMLSchema</text><text x="30" y="50" font-size="8" style="fill:black">targetNamespace: http://www.uniovi.es</text><text x="30" y="60" font-size="8" style="fill:black">xmlns: http://www.uniovi.es</text><text x="30" y="70" font-size="8" style="fill:black">elementFormDefault: qualified</text><rect x="240" y="20" width="200" height="40" style="fill:white;stroke:black;stroke-width:1" /><text x="250" y="30" font-size="10" style="fill:blue">xs:element</text><path d="M220 40 C240 40 220 40 240 40" style="fill:transparent;stroke:black" /><text x="250" y="40" font-size="8" style="fill:black">name: circuito</text><rect x="460" y="20" width="200" height="40" style="fill:white;stroke:black;stroke-width:1" /><text x="470" y="30" font-size="10" style="fill:blue">xs:complexType</text><path d="M440 40 C460 40 440 40 460 40" style="fill:transparent;stroke:black" /><rect x="680" y="20" width="200" height="40" style="fill:white;stroke:black;stroke-width:1" /><text x="690" y="30" font-size="10" style="fill:blue">xs:sequence</text><path d="M660 40 C680 40 660 40 680 40" style="fill:transparent;stroke:black" /><rect x="900" y="20" width="200" height="40" style="fill:white;stroke:black;stroke-width:1" /><text x="910" y="30" font-size="10" style="fill:blue">xs:element</text><path d="M880 40 C900 40 880 40 900 40" style="fill:transparent;stroke:black" /><text x="910" y="40" font-size="8" style="fill:black">ref: nombre</text><rect x="900" y="70" width="200" height="40" style="fill:white;stroke:black;stroke-width:1" /><text x="910" y="80" font-size="10" style="fill:blue">xs:element</text><path d="M880 40 C900 40 880 90 900 90" style="fill:transparent;stroke:black" /><text x="910" y="90" font-size="8" style="fill:black">ref: longitud_pista</text><rect x="900" y="120" width="200" height="40" style="fill:white;stroke:black;stroke-width:1" /><text x="910" y="130" font-size="10" style="fill:blue">xs:element</text><path d="M880 40 C900 40 880 140 900 140" style="fill:transparent;stroke:black" /><text x="910" y="140" font-size="8" style="fill:black">ref: anchura</text><rect x="900" y="170" width="200" height="40" style="fill:white;stroke:black;stroke-width:1" /><text x="910" y="180" font-size="10" style="fill:blue">xs:element</text><path d="M880 40 C900 40 880 190 900 190" style="fill:transparent;stroke:black" /><text x="910" y="190" font-size="8" style="fill:black">ref: fecha</text><rect x="900" y="220" width="200" height="40" style="fill:white;stroke:black;stroke-width:1" /><text x="910" y="230" font-size="10" style="fill:blue">xs:element</text><path d="M880 40 C900 40 880 240 900 240" style="fill:transparent;stroke:black" /><text x="910" y="240" font-size="8" style="fill:black">ref: hora</text><rect x="900" y="270" width="200" height="40" style="fill:white;stroke:black;stroke-width:1" /><text x="910" y="280" font-size="10" style="fill:blue">xs:element</text><path d="M880 40 C900 40 880 290 900 290" style="fill:transparent;stroke:black" /><text x="910" y="290" font-size="8" style="fill:black">ref: vueltas</text><rect x="900" y="320" width="200" height="40" style="fill:white;stroke:black;stroke-width:1" /><text x="910" y="330" font-size="10" style="fill:blue">xs:element</text><path d="M880 40 C900 40 880 340 900 340" style="fill:transparent;stroke:black" /><text x="910" y="340" font-size="8" style="fill:black">ref: localidad</text><rect x="900" y="370" width="200" height="40" style="fill:white;stroke:black;stroke-width:1" /><text x="910" y="380" font-size="10" style="fill:blue">xs:element</text><path d="M880 40 C900 40 880 390 900 390" style="fill:transparent;stroke:black" /><text x="910" y="390" font-size="8" style="fill:black">ref: pais</text><rect x="900" y="420" width="200" height="40" style="fill:white;stroke:black;stroke-width:1" /><text x="910" y="430" font-size="10" style="fill:blue">xs:element</text><path d="M880 40 C900 40 880 440 900 440" style="fill:transparent;stroke:black" /><text x="910" y="440" font-size="8" style="fill:black">ref: patrocinador</text><rect x="900" y="470" width="200" height="40" style="fill:white;stroke:black;stroke-width:1" /><text x="910" y="480" font-size="10" style="fill:blue">xs:element</text><path d="M880 40 C900 40 880 490 900 490" style="fill:transparent;stroke:black" /><text x="910" y="490" font-size="8" style="fill:black">ref: bibliografia</text><rect x="900" y="520" width="200" height="40" style="fill:white;stroke:black;stroke-width:1" /><text x="910" y="530" font-size="10" style="fill:blue">xs:element</text><path d="M880 40 C900 40 880 540 900 540" style="fill:transparent;stroke:black" /><text x="910" y="540" font-size="8" style="fill:black">ref: galeria_fotos</text><rect x="900" y="570" width="200" height="40" style="fill:white;stroke:black;stroke-width:1" /><text x="910" y="580" font-size="10" style="fill:blue">xs:element</text><path d="M880 40 C900 40 880 590 900 590" style="fill:transparent;stroke:black" /><text x="910" y="590" font-size="8" style="fill:black">ref: galeria_videos</text><text x="910" y="600" font-size="8" style="fill:black">minOccurs: 1</text><text x="910" y="610" font-size="8" style="fill:black">maxOccurs: 1</text><rect x="900" y="620" width="200" height="40" style="fill:white;stroke:black;stroke-width:1" /><text x="910" y="630" font-size="10" style="fill:blue">xs:element</text><path d="M880 40 C900 40 880 640 900 640" style="fill:transparent;stroke:black" /><text x="910" y="640" font-size="8" style="fill:black">ref: coordenadas_centro</text><rect x="900" y="670" width="200" height="40" style="fill:white;stroke:black;stroke-width:1" /><text x="910" y="680" font-size="10" style="fill:blue">xs:element</text><path d="M880 40 C900 40 880 690 900 690" style="fill:transparent;stroke:black" /><text x="910" y="690" font-size="8" style="fill:black">ref: tramos</text><rect x="900" y="720" width="200" height="40" style="fill:white;stroke:black;stroke-width:1" /><text x="910" y="730" font-size="10" style="fill:blue">xs:element</text><path d="M880 40 C900 40 880 740 900 740" style="fill:transparent;stroke:black" /><text x="910" y="740" font-size="8" style="fill:black">ref: resultados_carrera</text><rect x="240" y="920" width="200" height="40" style="fill:white;stroke:black;stroke-width:1" /><text x="250" y="930" font-size="10" style="fill:blue">xs:element</text><path d="M220 40 C240 40 220 940 240 940" style="fill:transparent;stroke:black" /><text x="250" y="940" font-size="8" style="fill:black">name: nombre</text><rect x="460" y="920" width="200" height="40" style="fill:white;stroke:black;stroke-width:1" /><text x="470" y="930" font-size="10" style="fill:blue">xs:simpleType</text><path d="M440 940 C460 940 440 940 460 940" style="fill:transparent;stroke:black" /><rect x="680" y="920" width="200" height="40" style="fill:white;stroke:black;stroke-width:1" /><text x="690" y="930" font-size="10" style="fill:blue">xs:restriction</text><path d="M660 940 C680 940 660 940 680 940" style="fill:transparent;stroke:black" /><text x="690" y="940" font-size="8" style="fill:black">base: xs:string</text><rect x="900" y="920" width="200" height="40" style="fill:white;stroke:black;stroke-width:1" /><text x="910" y="930" font-size="10" style="fill:blue">xs:minLength</text><path d="M880 940 C900 940 880 940 900 940" style="fill:transparent;stroke:black" /><text x="910" y="940" font-size="8" style="fill:black">value: 5</text><rect x="900" y="970" width="200" height="40" style="fill:white;stroke:black;stroke-width:1" /><text x="910" y="980" font-size="10" style="fill:blue">xs:maxLength</text><path d="M880 940 C900 940 880 990 900 990" style="fill:transparent;stroke:black" /><text x="910" y="990" font-size="8" style="fill:black">value: 100</text><rect x="240" y="1170" width="200" height="40" style="fill:white;stroke:black;stroke-width:1" /><text x="250" y="1180" font-size="10" style="fill:blue">xs:element</text><path d="M220 40 C240 40 220 1190 240 1190" style="fill:transparent;stroke:black" /><text x="250" y="1190" font-size="8" style="fill:black">name: longitud_pista</text><rect x="460" y="1170" width="200" height="40" style="fill:white;stroke:black;stroke-width:1" /><text x="470" y="1180" font-size="10" style="fill:blue">xs:complexType</text><path d="M440 1190 C460 1190 440 1190 460 1190" style="fill:transparent;stroke:black" /><rect x="680" y="1170" width="200" height="40" style="fill:white;stroke:black;stroke-width:1" /><text x="690" y="1180" font-size="10" style="fill:blue">xs:simpleContent</text><path d="M660 1190 C680 1190 660 1190 680 1190" style="fill:transparent;stroke:black" /><rect x="900" y="1170" width="200" height="40" style="fill:white;stroke:black;stroke-width:1" /><text x="910" y="1180" font-size="10" style="fill:blue">xs:extension</text><path d="M880 1190 C900 1190 880 1190 900 1190" style="fill:transparent;stroke:black" /><text x="910" y="1190" font-size="8" style="fill:black">base: xs:decimal</text><rect x="1120" y="1170" width="200" height="40" style="fill:white;stroke:black;stroke-width:1" /><text x="1130" y="1180" font-size="10" style="fill:blue">xs:attribute</text><path d="M1100 1190 C1120 1190 1100 1190 1120 1190" style="fill:transparent;stroke:black" /><text x="1130" y="1190" font-size="8" style="fill:black">name: unidad</text><text x="1130" y="1200" font-size="8" style="fill:black">use: required</text><rect x="1340" y="1170" width="200" height="40" style="fill:white;stroke:black;stroke-width:1" /><text x="1350" y="1180" font-size="10" style="fill:blue">xs:simpleType</text><path d="M1320 1190 C1340 1190 1320 1190 1340 1190" style="fill:transparent;stroke:black" /><rect x="1560" y="1170" width="200" height="40" style="fill:white;stroke:black;stroke-width:1" /><text x="1570" y="1180" font-size="10" style="fill:blue">xs:restriction</text><path d="M1540 1190 C1560 1190 1540 1190 1560 1190" style="fill:transparent;stroke:black" /><text x="1570" y="1190" font-size="8" style="fill:black">base: xs:string</text><rect x="1780" y="1170" width="200" height="40" style="fill:white;stroke:black;stroke-width:1" /><text x="1790" y="1180" font-size="10" style="fill:blue">xs:enumeration</text><path d="M1760 1190 C1780 1190 1760 1190 1780 1190" style="fill:transparent;stroke:black" /><text x="1790" y="1190" font-size="8" style="fill:black">value: metros</text><rect x="240" y="1570" width="200" height="40" style="fill:white;stroke:black;stroke-width:1" /><text x="250" y="1580" font-size="10" style="fill:blue">xs:element</text><path d="M220 40 C240 40 220 1590 240 1590" style="fill:transparent;stroke:black" /><text x="250" y="1590" font-size="8" style="fill:black">name: anchura</text><rect x="460" y="1570" width="200" height="40" style="fill:white;stroke:black;stroke-width:1" /><text x="470" y="1580" font-size="10" style="fill:blue">xs:complexType</text><path d="M440 1590 C460 1590 440 1590 460 1590" style="fill:transparent;stroke:black" /><rect x="680" y="1570" width="200" height="40" style="fill:white;stroke:black;stroke-width:1" /><text x="690" y="1580" font-size="10" style="fill:blue">xs:simpleContent</text><path d="M660 1590 C680 1590 660 1590 680 1590" style="fill:transparent;stroke:black" /><rect x="900" y="1570" width="200" height="40" style="fill:white;stroke:black;stroke-width:1" /><text x="910" y="1580" font-size="10" style="fill:blue">xs:extension</text><path d="M880 1590 C900 1590 880 1590 900 1590" style="fill:transparent;stroke:black" /><text x="910" y="1590" font-size="8" style="fill:black">base: xs:decimal</text><rect x="1120" y="1570" width="200" height="40" style="fill:white;stroke:black;stroke-width:1" /><text x="1130" y="1580" font-size="10" style="fill:blue">xs:attribute</text><path d="M1100 1590 C1120 1590 1100 1590 1120 1590" style="fill:transparent;stroke:black" /><text x="1130" y="1590" font-size="8" style="fill:black">name: unidad</text><text x="1130" y="1600" font-size="8" style="fill:black">use: required</text><rect x="1340" y="1570" width="200" height="40" style="fill:white;stroke:black;stroke-width:1" /><text x="1350" y="1580" font-size="10" style="fill:blue">xs:simpleType</text><path d="M1320 1590 C1340 1590 1320 1590 1340 1590" style="fill:transparent;stroke:black" /><rect x="1560" y="1570" width="200" height="40" style="fill:white;stroke:black;stroke-width:1" /><text x="1570" y="1580" font-size="10" style="fill:blue">xs:restriction</text><path d="M1540 1590 C1560 1590 1540 1590 1560 1590" style="fill:transparent;stroke:black" /><text x="1570" y="1590" font-size="8" style="fill:black">base: xs:string</text><rect x="1780" y="1570" width="200" height="40" style="fill:white;stroke:black;stroke-width:1" /><text x="1790" y="1580" font-size="10" style="fill:blue">xs:enumeration</text><path d="M1760 1590 C1780 1590 1760 1590 1780 1590" style="fill:transparent;stroke:black" /><text x="1790" y="1590" font-size="8" style="fill:black">value: metros</text><rect x="240" y="1970" width="200" height="40" style="fill:white;stroke:black;stroke-width:1" /><text x="250" y="1980" font-size="10" style="fill:blue">xs:element</text><path d="M220 40 C240 40 220 1990 240 1990" style="fill:transparent;stroke:black" /><text x="250" y="1990" font-size="8" style="fill:black">name: fecha</text><text x="250" y="2000" font-size="8" style="fill:black">type: xs:date</text><rect x="240" y="2020" width="200" height="40" style="fill:white;stroke:black;stroke-width:1" /><text x="250" y="2030" font-size="10" style="fill:blue">xs:element</text><path d="M220 40 C240 40 220 2040 240 2040" style="fill:transparent;stroke:black" /><text x="250" y="2040" font-size="8" style="fill:black">name: hora</text><text x="250" y="2050" font-size="8" style="fill:black">type: xs:time</text><rect x="240" y="2070" width="200" height="40" style="fill:white;stroke:black;stroke-width:1" /><text x="250" y="2080" font-size="10" style="fill:blue">xs:element</text><path d="M220 40 C240 40 220 2090 240 2090" style="fill:transparent;stroke:black" /><text x="250" y="2090" font-size="8" style="fill:black">name: vueltas</text><text x="250" y="2100" font-size="8" style="fill:black">type: xs:positiveInteger</text><rect x="240" y="2120" width="200" height="40" style="fill:white;stroke:black;stroke-width:1" /><text x="250" y="2130" font-size="10" style="fill:blue">xs:element</text><path d="M220 40 C240 40 220 2140 240 2140" style="fill:transparent;stroke:black" /><text x="250" y="2140" font-size="8" style="fill:black">name: localidad</text><text x="250" y="2150" font-size="8" style="fill:black">type: xs:string</text><rect x="240" y="2170" width="200" height="40" style="fill:white;stroke:black;stroke-width:1" /><text x="250" y="2180" font-size="10" style="fill:blue">xs:element</text><path d="M220 40 C240 40 220 2190 240 2190" style="fill:transparent;stroke:black" /><text x="250" y="2190" font-size="8" style="fill:black">name: pais</text><text x="250" y="2200" font-size="8" style="fill:black">type: xs:string</text><rect x="240" y="2220" width="200" height="40" style="fill:white;stroke:black;stroke-width:1" /><text x="250" y="2230" font-size="10" style="fill:blue">xs:element</text><path d="M220 40 C240 40 220 2240 240 2240" style="fill:transparent;stroke:black" /><text x="250" y="2240" font-size="8" style="fill:black">name: patrocinador</text><text x="250" y="2250" font-size="8" style="fill:black">type: xs:string</text><rect x="240" y="2270" width="200" height="40" style="fill:white;stroke:black;stroke-width:1" /><text x="250" y="2280" font-size="10" style="fill:blue">xs:element</text><path d="M220 40 C240 40 220 2290 240 2290" style="fill:transparent;stroke:black" /><text x="250" y="2290" font-size="8" style="fill:black">name: bibliografia</text><rect x="460" y="2270" width="200" height="40" style="fill:white;stroke:black;stroke-width:1" /><text x="470" y="2280" font-size="10" style="fill:blue">xs:complexType</text><path d="M440 2290 C460 2290 440 2290 460 2290" style="fill:transparent;stroke:black" /><rect x="680" y="2270" width="200" height="40" style="fill:white;stroke:black;stroke-width:1" /><text x="690" y="2280" font-size="10" style="fill:blue">xs:sequence</text><path d="M660 2290 C680 2290 660 2290 680 2290" style="fill:transparent;stroke:black" /><rect x="900" y="2270" width="200" height="40" style="fill:white;stroke:black;stroke-width:1" /><text x="910" y="2280" font-size="10" style="fill:blue">xs:element</text><path d="M880 2290 C900 2290 880 2290 900 2290" style="fill:transparent;stroke:black" /><text x="910" y="2290" font-size="8" style="fill:black">name: referencia</text><text x="910" y="2300" font-size="8" style="fill:black">type: xs:anyURI</text><text x="910" y="2310" font-size="8" style="fill:black">minOccurs: 3</text><text x="910" y="2320" font-size="8" style="fill:black">maxOccurs: unbounded</text><rect x="240" y="2470" width="200" height="40" style="fill:white;stroke:black;stroke-width:1" /><text x="250" y="2480" font-size="10" style="fill:blue">xs:element</text><path d="M220 40 C240 40 220 2490 240 2490" style="fill:transparent;stroke:black" /><text x="250" y="2490" font-size="8" style="fill:black">name: galeria_fotos</text><rect x="460" y="2470" width="200" height="40" style="fill:white;stroke:black;stroke-width:1" /><text x="470" y="2480" font-size="10" style="fill:blue">xs:complexType</text><path d="M440 2490 C460 2490 440 2490 460 2490" style="fill:transparent;stroke:black" /><rect x="680" y="2470" width="200" height="40" style="fill:white;stroke:black;stroke-width:1" /><text x="690" y="2480" font-size="10" style="fill:blue">xs:sequence</text><path d="M660 2490 C680 2490 660 2490 680 2490" style="fill:transparent;stroke:black" /><rect x="900" y="2470" width="200" height="40" style="fill:white;stroke:black;stroke-width:1" /><text x="910" y="2480" font-size="10" style="fill:blue">xs:element</text><path d="M880 2490 C900 2490 880 2490 900 2490" style="fill:transparent;stroke:black" /><text x="910" y="2490" font-size="8" style="fill:black">ref: foto</text><text x="910" y="2500" font-size="8" style="fill:black">minOccurs: 1</text><text x="910" y="2510" font-size="8" style="fill:black">maxOccurs: 5</text><rect x="240" y="2670" width="200" height="40" style="fill:white;stroke:black;stroke-width:1" /><text x="250" y="2680" font-size="10" style="fill:blue">xs:element</text><path d="M220 40 C240 40 220 2690 240 2690" style="fill:transparent;stroke:black" /><text x="250" y="2690" font-size="8" style="fill:black">name: foto</text><rect x="460" y="2670" width="200" height="40" style="fill:white;stroke:black;stroke-width:1" /><text x="470" y="2680" font-size="10" style="fill:blue">xs:complexType</text><path d="M440 2690 C460 2690 440 2690 460 2690" style="fill:transparent;stroke:black" /><rect x="680" y="2670" width="200" height="40" style="fill:white;stroke:black;stroke-width:1" /><text x="690" y="2680" font-size="10" style="fill:blue">xs:sequence</text><path d="M660 2690 C680 2690 660 2690 680 2690" style="fill:transparent;stroke:black" /><rect x="900" y="2670" width="200" height="40" style="fill:white;stroke:black;stroke-width:1" /><text x="910" y="2680" font-size="10" style="fill:blue">xs:element</text><path d="M880 2690 C900 2690 880 2690 900 2690" style="fill:transparent;stroke:black" /><text x="910" y="2690" font-size="8" style="fill:black">name: descripcion</text><text x="910" y="2700" font-size="8" style="fill:black">type: xs:string</text><rect x="900" y="2720" width="200" height="40" style="fill:white;stroke:black;stroke-width:1" /><text x="910" y="2730" font-size="10" style="fill:blue">xs:element</text><path d="M880 2690 C900 2690 880 2740 900 2740" style="fill:transparent;stroke:black" /><text x="910" y="2740" font-size="8" style="fill:black">name: archivo</text><text x="910" y="2750" font-size="8" style="fill:black">type: xs:anyURI</text><rect x="240" y="2920" width="200" height="40" style="fill:white;stroke:black;stroke-width:1" /><text x="250" y="2930" font-size="10" style="fill:blue">xs:element</text><path d="M220 40 C240 40 220 2940 240 2940" style="fill:transparent;stroke:black" /><text x="250" y="2940" font-size="8" style="fill:black">name: galeria_videos</text><rect x="460" y="2920" width="200" height="40" style="fill:white;stroke:black;stroke-width:1" /><text x="470" y="2930" font-size="10" style="fill:blue">xs:complexType</text><path d="M440 2940 C460 2940 440 2940 460 2940" style="fill:transparent;stroke:black" /><rect x="680" y="2920" width="200" height="40" style="fill:white;stroke:black;stroke-width:1" /><text x="690" y="2930" font-size="10" style="fill:blue">xs:sequence</text><path d="M660 2940 C680 2940 660 2940 680 2940" style="fill:transparent;stroke:black" /><rect x="900" y="2920" width="200" height="40" style="fill:white;stroke:black;stroke-width:1" /><text x="910" y="2930" font-size="10" style="fill:blue">xs:element</text><path d="M880 2940 C900 2940 880 2940 900 2940" style="fill:transparent;stroke:black" /><text x="910" y="2940" font-size="8" style="fill:black">ref: video</text><text x="910" y="2950" font-size="8" style="fill:black">minOccurs: 1</text><text x="910" y="2960" font-size="8" style="fill:black">maxOccurs: 3</text><rect x="240" y="3120" width="200" height="40" style="fill:white;stroke:black;stroke-width:1" /><text x="250" y="3130" font-size="10" style="fill:blue">xs:element</text><path d="M220 40 C240 40 220 3140 240 3140" style="fill:transparent;stroke:black" /><text x="250" y="3140" font-size="8" style="fill:black">name: video</text><rect x="460" y="3120" width="200" height="40" style="fill:white;stroke:black;stroke-width:1" /><text x="470" y="3130" font-size="10" style="fill:blue">xs:complexType</text><path d="M440 3140 C460 3140 440 3140 460 3140" style="fill:transparent;stroke:black" /><rect x="680" y="3120" width="200" height="40" style="fill:white;stroke:black;stroke-width:1" /><text x="690" y="3130" font-size="10" style="fill:blue">xs:sequence</text><path d="M660 3140 C680 3140 660 3140 680 3140" style="fill:transparent;stroke:black" /><rect x="900" y="3120" width="200" height="40" style="fill:white;stroke:black;stroke-width:1" /><text x="910" y="3130" font-size="10" style="fill:blue">xs:element</text><path d="M880 3140 C900 3140 880 3140 900 3140" style="fill:transparent;stroke:black" /><text x="910" y="3140" font-size="8" style="fill:black">name: descripcion</text><text x="910" y="3150" font-size="8" style="fill:black">type: xs:string</text><rect x="900" y="3170" width="200" height="40" style="fill:white;stroke:black;stroke-width:1" /><text x="910" y="3180" font-size="10" style="fill:blue">xs:element</text><path d="M880 3140 C900 3140 880 3190 900 3190" style="fill:transparent;stroke:black" /><text x="910" y="3190" font-size="8" style="fill:black">name: archivo</text><text x="910" y="3200" font-size="8" style="fill:black">type: xs:anyURI</text><rect x="240" y="3370" width="200" height="40" style="fill:white;stroke:black;stroke-width:1" /><text x="250" y="3380" font-size="10" style="fill:blue">xs:element</text><path d="M220 40 C240 40 220 3390 240 3390" style="fill:transparent;stroke:black" /><text x="250" y="3390" font-size="8" style="fill:black">name: coordenadas_centro</text><rect x="460" y="3370" width="200" height="40" style="fill:white;stroke:black;stroke-width:1" /><text x="470" y="3380" font-size="10" style="fill:blue">xs:complexType</text><path d="M440 3390 C460 3390 440 3390 460 3390" style="fill:transparent;stroke:black" /><rect x="680" y="3370" width="200" height="40" style="fill:white;stroke:black;stroke-width:1" /><text x="690" y="3380" font-size="10" style="fill:blue">xs:sequence</text><path d="M660 3390 C680 3390 660 3390 680 3390" style="fill:transparent;stroke:black" /><rect x="900" y="3370" width="200" height="40" style="fill:white;stroke:black;stroke-width:1" /><text x="910" y="3380" font-size="10" style="fill:blue">xs:element</text><path d="M880 3390 C900 3390 880 3390 900 3390" style="fill:transparent;stroke:black" /><text x="910" y="3390" font-size="8" style="fill:black">name: latitud</text><rect x="1120" y="3370" width="200" height="40" style="fill:white;stroke:black;stroke-width:1" /><text x="1130" y="3380" font-size="10" style="fill:blue">xs:simpleType</text><path d="M1100 3390 C1120 3390 1100 3390 1120 3390" style="fill:transparent;stroke:black" /><rect x="1340" y="3370" width="200" height="40" style="fill:white;stroke:black;stroke-width:1" /><text x="1350" y="3380" font-size="10" style="fill:blue">xs:restriction</text><path d="M1320 3390 C1340 3390 1320 3390 1340 3390" style="fill:transparent;stroke:black" /><text x="1350" y="3390" font-size="8" style="fill:black">base: xs:decimal</text><rect x="1560" y="3370" width="200" height="40" style="fill:white;stroke:black;stroke-width:1" /><text x="1570" y="3380" font-size="10" style="fill:blue">xs:minInclusive</text><path d="M1540 3390 C1560 3390 1540 3390 1560 3390" style="fill:transparent;stroke:black" /><text x="1570" y="3390" font-size="8" style="fill:black">value: -90.0</text><rect x="1560" y="3420" width="200" height="40" style="fill:white;stroke:black;stroke-width:1" /><text x="1570" y="3430" font-size="10" style="fill:blue">xs:maxInclusive</text><path d="M1540 3390 C1560 3390 1540 3440 1560 3440" style="fill:transparent;stroke:black" /><text x="1570" y="3440" font-size="8" style="fill:black">value: 90.0</text><rect x="900" y="3620" width="200" height="40" style="fill:white;stroke:black;stroke-width:1" /><text x="910" y="3630" font-size="10" style="fill:blue">xs:element</text><path d="M880 3390 C900 3390 880 3640 900 3640" style="fill:transparent;stroke:black" /><text x="910" y="3640" font-size="8" style="fill:black">name: longitud</text><rect x="1120" y="3620" width="200" height="40" style="fill:white;stroke:black;stroke-width:1" /><text x="1130" y="3630" font-size="10" style="fill:blue">xs:simpleType</text><path d="M1100 3640 C1120 3640 1100 3640 1120 3640" style="fill:transparent;stroke:black" /><rect x="1340" y="3620" width="200" height="40" style="fill:white;stroke:black;stroke-width:1" /><text x="1350" y="3630" font-size="10" style="fill:blue">xs:restriction</text><path d="M1320 3640 C1340 3640 1320 3640 1340 3640" style="fill:transparent;stroke:black" /><text x="1350" y="3640" font-size="8" style="fill:black">base: xs:decimal</text><rect x="1560" y="3620" width="200" height="40" style="fill:white;stroke:black;stroke-width:1" /><text x="1570" y="3630" font-size="10" style="fill:blue">xs:minInclusive</text><path d="M1540 3640 C1560 3640 1540 3640 1560 3640" style="fill:transparent;stroke:black" /><text x="1570" y="3640" font-size="8" style="fill:black">value: -180.0</text><rect x="1560" y="3670" width="200" height="40" style="fill:white;stroke:black;stroke-width:1" /><text x="1570" y="3680" font-size="10" style="fill:blue">xs:maxInclusive</text><path d="M1540 3640 C1560 3640 1540 3690 1560 3690" style="fill:transparent;stroke:black" /><text x="1570" y="3690" font-size="8" style="fill:black">value: 180.0</text><rect x="900" y="3870" width="200" height="40" style="fill:white;stroke:black;stroke-width:1" /><text x="910" y="3880" font-size="10" style="fill:blue">xs:element</text><path d="M880 3390 C900 3390 880 3890 900 3890" style="fill:transparent;stroke:black" /><text x="910" y="3890" font-size="8" style="fill:black">name: altitud</text><text x="910" y="3900" font-size="8" style="fill:black">type: xs:decimal</text><rect x="240" y="4070" width="200" height="40" style="fill:white;stroke:black;stroke-width:1" /><text x="250" y="4080" font-size="10" style="fill:blue">xs:element</text><path d="M220 40 C240 40 220 4090 240 4090" style="fill:transparent;stroke:black" /><text x="250" y="4090" font-size="8" style="fill:black">name: tramos</text><rect x="460" y="4070" width="200" height="40" style="fill:white;stroke:black;stroke-width:1" /><text x="470" y="4080" font-size="10" style="fill:blue">xs:complexType</text><path d="M440 4090 C460 4090 440 4090 460 4090" style="fill:transparent;stroke:black" /><rect x="680" y="4070" width="200" height="40" style="fill:white;stroke:black;stroke-width:1" /><text x="690" y="4080" font-size="10" style="fill:blue">xs:sequence</text><path d="M660 4090 C680 4090 660 4090 680 4090" style="fill:transparent;stroke:black" /><rect x="900" y="4070" width="200" height="40" style="fill:white;stroke:black;stroke-width:1" /><text x="910" y="4080" font-size="10" style="fill:blue">xs:element</text><path d="M880 4090 C900 4090 880 4090 900 4090" style="fill:transparent;stroke:black" /><text x="910" y="4090" font-size="8" style="fill:black">ref: tramo</text><text x="910" y="4100" font-size="8" style="fill:black">minOccurs: 1</text><text x="910" y="4110" font-size="8" style="fill:black">maxOccurs: unbounded</text><rect x="240" y="4270" width="200" height="40" style="fill:white;stroke:black;stroke-width:1" /><text x="250" y="4280" font-size="10" style="fill:blue">xs:element</text><path d="M220 40 C240 40 220 4290 240 4290" style="fill:transparent;stroke:black" /><text x="250" y="4290" font-size="8" style="fill:black">name: tramo</text><rect x="460" y="4270" width="200" height="40" style="fill:white;stroke:black;stroke-width:1" /><text x="470" y="4280" font-size="10" style="fill:blue">xs:complexType</text><path d="M440 4290 C460 4290 440 4290 460 4290" style="fill:transparent;stroke:black" /><rect x="680" y="4270" width="200" height="40" style="fill:white;stroke:black;stroke-width:1" /><text x="690" y="4280" font-size="10" style="fill:blue">xs:sequence</text><path d="M660 4290 C680 4290 660 4290 680 4290" style="fill:transparent;stroke:black" /><rect x="900" y="4270" width="200" height="40" style="fill:white;stroke:black;stroke-width:1" /><text x="910" y="4280" font-size="10" style="fill:blue">xs:element</text><path d="M880 4290 C900 4290 880 4290 900 4290" style="fill:transparent;stroke:black" /><text x="910" y="4290" font-size="8" style="fill:black">name: distancia</text><rect x="1120" y="4270" width="200" height="40" style="fill:white;stroke:black;stroke-width:1" /><text x="1130" y="4280" font-size="10" style="fill:blue">xs:complexType</text><path d="M1100 4290 C1120 4290 1100 4290 1120 4290" style="fill:transparent;stroke:black" /><rect x="1340" y="4270" width="200" height="40" style="fill:white;stroke:black;stroke-width:1" /><text x="1350" y="4280" font-size="10" style="fill:blue">xs:simpleContent</text><path d="M1320 4290 C1340 4290 1320 4290 1340 4290" style="fill:transparent;stroke:black" /><rect x="1560" y="4270" width="200" height="40" style="fill:white;stroke:black;stroke-width:1" /><text x="1570" y="4280" font-size="10" style="fill:blue">xs:extension</text><path d="M1540 4290 C1560 4290 1540 4290 1560 4290" style="fill:transparent;stroke:black" /><text x="1570" y="4290" font-size="8" style="fill:black">base: xs:decimal</text><rect x="1780" y="4270" width="200" height="40" style="fill:white;stroke:black;stroke-width:1" /><text x="1790" y="4280" font-size="10" style="fill:blue">xs:attribute</text><path d="M1760 4290 C1780 4290 1760 4290 1780 4290" style="fill:transparent;stroke:black" /><text x="1790" y="4290" font-size="8" style="fill:black">name: unidad</text><text x="1790" y="4300" font-size="8" style="fill:black">use: required</text><rect x="2000" y="4270" width="200" height="40" style="fill:white;stroke:black;stroke-width:1" /><text x="2010" y="4280" font-size="10" style="fill:blue">xs:simpleType</text><path d="M1980 4290 C2000 4290 1980 4290 2000 4290" style="fill:transparent;stroke:black" /><rect x="2220" y="4270" width="200" height="40" style="fill:white;stroke:black;stroke-width:1" /><text x="2230" y="4280" font-size="10" style="fill:blue">xs:restriction</text><path d="M2200 4290 C2220 4290 2200 4290 2220 4290" style="fill:transparent;stroke:black" /><text x="2230" y="4290" font-size="8" style="fill:black">base: xs:string</text><rect x="2440" y="4270" width="200" height="40" style="fill:white;stroke:black;stroke-width:1" /><text x="2450" y="4280" font-size="10" style="fill:blue">xs:enumeration</text><path d="M2420 4290 C2440 4290 2420 4290 2440 4290" style="fill:transparent;stroke:black" /><text x="2450" y="4290" font-size="8" style="fill:black">value: metros</text><rect x="900" y="4670" width="200" height="40" style="fill:white;stroke:black;stroke-width:1" /><text x="910" y="4680" font-size="10" style="fill:blue">xs:element</text><path d="M880 4290 C900 4290 880 4690 900 4690" style="fill:transparent;stroke:black" /><text x="910" y="4690" font-size="8" style="fill:black">name: coordenadas</text><rect x="1120" y="4670" width="200" height="40" style="fill:white;stroke:black;stroke-width:1" /><text x="1130" y="4680" font-size="10" style="fill:blue">xs:complexType</text><path d="M1100 4690 C1120 4690 1100 4690 1120 4690" style="fill:transparent;stroke:black" /><rect x="1340" y="4670" width="200" height="40" style="fill:white;stroke:black;stroke-width:1" /><text x="1350" y="4680" font-size="10" style="fill:blue">xs:sequence</text><path d="M1320 4690 C1340 4690 1320 4690 1340 4690" style="fill:transparent;stroke:black" /><rect x="1560" y="4670" width="200" height="40" style="fill:white;stroke:black;stroke-width:1" /><text x="1570" y="4680" font-size="10" style="fill:blue">xs:element</text><path d="M1540 4690 C1560 4690 1540 4690 1560 4690" style="fill:transparent;stroke:black" /><text x="1570" y="4690" font-size="8" style="fill:black">name: latitud</text><rect x="1780" y="4670" width="200" height="40" style="fill:white;stroke:black;stroke-width:1" /><text x="1790" y="4680" font-size="10" style="fill:blue">xs:simpleType</text><path d="M1760 4690 C1780 4690 1760 4690 1780 4690" style="fill:transparent;stroke:black" /><rect x="2000" y="4670" width="200" height="40" style="fill:white;stroke:black;stroke-width:1" /><text x="2010" y="4680" font-size="10" style="fill:blue">xs:restriction</text><path d="M1980 4690 C2000 4690 1980 4690 2000 4690" style="fill:transparent;stroke:black" /><text x="2010" y="4690" font-size="8" style="fill:black">base: xs:decimal</text><rect x="2220" y="4670" width="200" height="40" style="fill:white;stroke:black;stroke-width:1" /><text x="2230" y="4680" font-size="10" style="fill:blue">xs:minInclusive</text><path d="M2200 4690 C2220 4690 2200 4690 2220 4690" style="fill:transparent;stroke:black" /><text x="2230" y="4690" font-size="8" style="fill:black">value: -90.0</text><rect x="2220" y="4720" width="200" height="40" style="fill:white;stroke:black;stroke-width:1" /><text x="2230" y="4730" font-size="10" style="fill:blue">xs:maxInclusive</text><path d="M2200 4690 C2220 4690 2200 4740 2220 4740" style="fill:transparent;stroke:black" /><text x="2230" y="4740" font-size="8" style="fill:black">value: 90.0</text><rect x="1560" y="4920" width="200" height="40" style="fill:white;stroke:black;stroke-width:1" /><text x="1570" y="4930" font-size="10" style="fill:blue">xs:element</text><path d="M1540 4690 C1560 4690 1540 4940 1560 4940" style="fill:transparent;stroke:black" /><text x="1570" y="4940" font-size="8" style="fill:black">name: longitud</text><rect x="1780" y="4920" width="200" height="40" style="fill:white;stroke:black;stroke-width:1" /><text x="1790" y="4930" font-size="10" style="fill:blue">xs:simpleType</text><path d="M1760 4940 C1780 4940 1760 4940 1780 4940" style="fill:transparent;stroke:black" /><rect x="2000" y="4920" width="200" height="40" style="fill:white;stroke:black;stroke-width:1" /><text x="2010" y="4930" font-size="10" style="fill:blue">xs:restriction</text><path d="M1980 4940 C2000 4940 1980 4940 2000 4940" style="fill:transparent;stroke:black" /><text x="2010" y="4940" font-size="8" style="fill:black">base: xs:decimal</text><rect x="2220" y="4920" width="200" height="40" style="fill:white;stroke:black;stroke-width:1" /><text x="2230" y="4930" font-size="10" style="fill:blue">xs:minInclusive</text><path d="M2200 4940 C2220 4940 2200 4940 2220 4940" style="fill:transparent;stroke:black" /><text x="2230" y="4940" font-size="8" style="fill:black">value: -180.0</text><rect x="2220" y="4970" width="200" height="40" style="fill:white;stroke:black;stroke-width:1" /><text x="2230" y="4980" font-size="10" style="fill:blue">xs:maxInclusive</text><path d="M2200 4940 C2220 4940 2200 4990 2220 4990" style="fill:transparent;stroke:black" /><text x="2230" y="4990" font-size="8" style="fill:black">value: 180.0</text><rect x="1560" y="5170" width="200" height="40" style="fill:white;stroke:black;stroke-width:1" /><text x="1570" y="5180" font-size="10" style="fill:blue">xs:element</text><path d="M1540 4690 C1560 4690 1540 5190 1560 5190" style="fill:transparent;stroke:black" /><text x="1570" y="5190" font-size="8" style="fill:black">name: altitud</text><text x="1570" y="5200" font-size="8" style="fill:black">type: xs:decimal</text><rect x="900" y="5370" width="200" height="40" style="fill:white;stroke:black;stroke-width:1" /><text x="910" y="5380" font-size="10" style="fill:blue">xs:element</text><path d="M880 4290 C900 4290 880 5390 900 5390" style="fill:transparent;stroke:black" /><text x="910" y="5390" font-size="8" style="fill:black">name: sector</text><text x="910" y="5400" font-size="8" style="fill:black">type: xs:integer</text><rect x="240" y="5570" width="200" height="40" style="fill:white;stroke:black;stroke-width:1" /><text x="250" y="5580" font-size="10" style="fill:blue">xs:element</text><path d="M220 40 C240 40 220 5590 240 5590" style="fill:transparent;stroke:black" /><text x="250" y="5590" font-size="8" style="fill:black">name: resultados_carrera</text><rect x="460" y="5570" width="200" height="40" style="fill:white;stroke:black;stroke-width:1" /><text x="470" y="5580" font-size="10" style="fill:blue">xs:complexType</text><path d="M440 5590 C460 5590 440 5590 460 5590" style="fill:transparent;stroke:black" /><rect x="680" y="5570" width="200" height="40" style="fill:white;stroke:black;stroke-width:1" /><text x="690" y="5580" font-size="10" style="fill:blue">xs:sequence</text><path d="M660 5590 C680 5590 660 5590 680 5590" style="fill:transparent;stroke:black" /><rect x="900" y="5570" width="200" height="40" style="fill:white;stroke:black;stroke-width:1" /><text x="910" y="5580" font-size="10" style="fill:blue">xs:element</text><path d="M880 5590 C900 5590 880 5590 900 5590" style="fill:transparent;stroke:black" /><text x="910" y="5590" font-size="8" style="fill:black">ref: vencedor</text><rect x="900" y="5620" width="200" height="40" style="fill:white;stroke:black;stroke-width:1" /><text x="910" y="5630" font-size="10" style="fill:blue">xs:element</text><path d="M880 5590 C900 5590 880 5640 900 5640" style="fill:transparent;stroke:black" /><text x="910" y="5640" font-size="8" style="fill:black">ref: clasificacion_mundial</text><rect x="240" y="5820" width="200" height="40" style="fill:white;stroke:black;stroke-width:1" /><text x="250" y="5830" font-size="10" style="fill:blue">xs:element</text><path d="M220 40 C240 40 220 5840 240 5840" style="fill:transparent;stroke:black" /><text x="250" y="5840" font-size="8" style="fill:black">name: vencedor</text><rect x="460" y="5820" width="200" height="40" style="fill:white;stroke:black;stroke-width:1" /><text x="470" y="5830" font-size="10" style="fill:blue">xs:complexType</text><path d="M440 5840 C460 5840 440 5840 460 5840" style="fill:transparent;stroke:black" /><rect x="680" y="5820" width="200" height="40" style="fill:white;stroke:black;stroke-width:1" /><text x="690" y="5830" font-size="10" style="fill:blue">xs:sequence</text><path d="M660 5840 C680 5840 660 5840 680 5840" style="fill:transparent;stroke:black" /><rect x="900" y="5820" width="200" height="40" style="fill:white;stroke:black;stroke-width:1" /><text x="910" y="5830" font-size="10" style="fill:blue">xs:element</text><path d="M880 5840 C900 5840 880 5840 900 5840" style="fill:transparent;stroke:black" /><text x="910" y="5840" font-size="8" style="fill:black">ref: nombre</text><rect x="900" y="5870" width="200" height="40" style="fill:white;stroke:black;stroke-width:1" /><text x="910" y="5880" font-size="10" style="fill:blue">xs:element</text><path d="M880 5840 C900 5840 880 5890 900 5890" style="fill:transparent;stroke:black" /><text x="910" y="5890" font-size="8" style="fill:black">name: tiempo</text><text x="910" y="5900" font-size="8" style="fill:black">type: xs:duration</text><rect x="240" y="6070" width="200" height="40" style="fill:white;stroke:black;stroke-width:1" /><text x="250" y="6080" font-size="10" style="fill:blue">xs:element</text><path d="M220 40 C240 40 220 6090 240 6090" style="fill:transparent;stroke:black" /><text x="250" y="6090" font-size="8" style="fill:black">name: clasificacion_mundial</text><rect x="460" y="6070" width="200" height="40" style="fill:white;stroke:black;stroke-width:1" /><text x="470" y="6080" font-size="10" style="fill:blue">xs:complexType</text><path d="M440 6090 C460 6090 440 6090 460 6090" style="fill:transparent;stroke:black" /><rect x="680" y="6070" width="200" height="40" style="fill:white;stroke:black;stroke-width:1" /><text x="690" y="6080" font-size="10" style="fill:blue">xs:sequence</text><path d="M660 6090 C680 6090 660 6090 680 6090" style="fill:transparent;stroke:black" /><rect x="900" y="6070" width="200" height="40" style="fill:white;stroke:black;stroke-width:1" /><text x="910" y="6080" font-size="10" style="fill:blue">xs:element</text><path d="M880 6090 C900 6090 880 6090 900 6090" style="fill:transparent;stroke:black" /><text x="910" y="6090" font-size="8" style="fill:black">ref: piloto</text><text x="910" y="6100" font-size="8" style="fill:black">minOccurs: 1</text><text x="910" y="6110" font-size="8" style="fill:black">maxOccurs: unbounded</text><rect x="240" y="6270" width="200" height="40" style="fill:white;stroke:black;stroke-width:1" /><text x="250" y="6280" font-size="10" style="fill:blue">xs:element</text><path d="M220 40 C240 40 220 6290 240 6290" style="fill:transparent;stroke:black" /><text x="250" y="6290" font-size="8" style="fill:black">name: piloto</text><rect x="460" y="6270" width="200" height="40" style="fill:white;stroke:black;stroke-width:1" /><text x="470" y="6280" font-size="10" style="fill:blue">xs:complexType</text><path d="M440 6290 C460 6290 440 6290 460 6290" style="fill:transparent;stroke:black" /><rect x="680" y="6270" width="200" height="40" style="fill:white;stroke:black;stroke-width:1" /><text x="690" y="6280" font-size="10" style="fill:blue">xs:sequence</text><path d="M660 6290 C680 6290 660 6290 680 6290" style="fill:transparent;stroke:black" /><rect x="900" y="6270" width="200" height="40" style="fill:white;stroke:black;stroke-width:1" /><text x="910" y="6280" font-size="10" style="fill:blue">xs:element</text><path d="M880 6290 C900 6290 880 6290 900 6290" style="fill:transparent;stroke:black" /><text x="910" y="6290" font-size="8" style="fill:black">name: posicion</text><text x="910" y="6300" font-size="8" style="fill:black">type: xs:positiveInteger</text><rect x="900" y="6320" width="200" height="40" style="fill:white;stroke:black;stroke-width:1" /><text x="910" y="6330" font-size="10" style="fill:blue">xs:element</text><path d="M880 6290 C900 6290 880 6340 900 6340" style="fill:transparent;stroke:black" /><text x="910" y="6340" font-size="8" style="fill:black">ref: nombre</text></svg>